<?xml version="1.0" standalone="no"?>
<!DOCTYPE svg PUBLIC "-//W3C//DTD SVG 1.1//EN" "http://www.w3.org/Graphics/SVG/1.1/DTD/svg11.dtd">
<svg width="100%" height="100%" viewBox="0 0 200 200" version="1.1" xmlns="http://www.w3.org/2000/svg" xmlns:xlink="http://www.w3.org/1999/xlink" xml:space="preserve" style="fill-rule:evenodd;clip-rule:evenodd;stroke-linejoin:round;stroke-miterlimit:1.41421;">
    <g id="Layer1">
        <g transform="matrix(0.354209,2.46519e-32,2.46519e-32,0.354209,-41.3295,-82.8928)">
            <path d="M374.111,706.322L405.922,693.437L436.203,706.646L395.13,735.154L374.111,706.322Z" style="fill:rgb(68,37,20);fill-rule:nonzero;"/>
        </g>
        <g transform="matrix(0.354209,2.46519e-32,2.46519e-32,0.354209,-41.3295,-82.8928)">
            <path d="M438.862,677.007L470.674,664.121L500.956,652.846L466.5,696.5L438.862,677.007Z" style="fill:rgb(61,59,53);fill-rule:nonzero;"/>
        </g>
        <g transform="matrix(0.354209,2.46519e-32,2.46519e-32,0.354209,-41.3295,-82.8928)">
            <path d="M454.888,668.31L439.5,716.5L377.895,693.437L454.888,668.31Z" style="fill:rgb(153,105,73);fill-rule:nonzero;"/>
        </g>
        <g transform="matrix(0.354209,2.46519e-32,2.46519e-32,0.354209,-41.3295,-82.8928)">
            <path d="M600.847,494.914L541.294,559.057L559.809,509.278L600.847,494.914Z" style="fill:rgb(81,79,71);fill-rule:nonzero;"/>
        </g>
        <g transform="matrix(0.354209,2.46519e-32,2.46519e-32,0.354209,-41.3295,-82.8928)">
            <path d="M328.032,678.627L412.641,696.336L375.891,664.269L328.032,678.627Z" style="fill:rgb(134,70,30);fill-rule:nonzero;"/>
        </g>
        <g transform="matrix(0.354209,2.46519e-32,2.46519e-32,0.354209,-41.3295,-82.8928)">
            <path d="M375.891,664.269C375.891,664.269 377.182,642.494 379.311,641.709C381.439,640.925 441.184,641.709 441.184,641.709L375.891,664.269Z" style="fill:rgb(134,70,30);fill-rule:nonzero;"/>
        </g>
        <g transform="matrix(0.354209,2.46519e-32,2.46519e-32,0.354209,-41.3295,-82.8928)">
            <path d="M412.641,696.336L441.184,641.709L375.891,664.269L412.641,696.336Z" style="fill:rgb(107,57,23);fill-rule:nonzero;"/>
        </g>
        <g transform="matrix(0.354209,2.46519e-32,2.46519e-32,0.354209,-41.3295,-82.8928)">
            <path d="M521.068,554.429L441.184,641.709L474.344,571.627L521.068,554.429Z" style="fill:rgb(68,58,50);fill-rule:nonzero;"/>
        </g>
        <g transform="matrix(0.354209,2.46519e-32,2.46519e-32,0.354209,-41.3295,-82.8928)">
            <path d="M483.89,593.966L501.277,652.844L441.184,641.709L483.89,593.966Z" style="fill:rgb(81,79,71);fill-rule:nonzero;"/>
        </g>
        <g transform="matrix(0.354209,2.46519e-32,2.46519e-32,0.354209,-41.3295,-82.8928)">
            <path d="M501.277,652.844L412.641,696.336L441.184,641.709L501.277,652.844Z" style="fill:rgb(66,37,20);fill-rule:nonzero;"/>
        </g>
        <g transform="matrix(0.354209,2.46519e-32,2.46519e-32,0.354209,-41.3295,-82.8928)">
            <path d="M483.89,594.063L501.277,652.844L518.391,612.734L521.573,554.106L483.89,594.063Z" style="fill:rgb(89,64,49);fill-rule:nonzero;"/>
        </g>
        <g transform="matrix(0.354209,2.46519e-32,2.46519e-32,0.354209,-41.3295,-82.8928)">
            <path d="M521.25,554.268L518.391,612.734L561.962,510.611L521.25,554.268Z" style="fill:rgb(63,60,54);fill-rule:nonzero;"/>
        </g>
        <g transform="matrix(0.354209,2.46519e-32,2.46519e-32,0.354209,-41.3295,-82.8928)">
            <path d="M176.713,474.214L283.988,588.255L250.826,514.513L176.713,474.214Z" style="fill:rgb(107,201,223);fill-rule:nonzero;"/>
        </g>
        <g transform="matrix(0.354209,2.46519e-32,2.46519e-32,0.354209,-41.3295,-82.8928)">
            <path d="M328.032,678.627L374.111,706.322L412.641,696.336L328.032,678.627Z" style="fill:rgb(107,57,23);fill-rule:nonzero;"/>
        </g>
        <g transform="matrix(0.354209,2.46519e-32,2.46519e-32,0.354209,-41.3295,-82.8928)">
            <path d="M144.913,405.828L176.933,475.141L239.149,411.299L144.913,405.828Z" style="fill:rgb(107,201,223);fill-rule:nonzero;"/>
        </g>
        <g transform="matrix(0.354209,2.46519e-32,2.46519e-32,0.354209,-41.3295,-82.8928)">
            <path d="M176.933,475.141L248.525,517.341L304.785,448.218L176.933,475.141Z" style="fill:rgb(30,101,110);fill-rule:nonzero;"/>
        </g>
        <g transform="matrix(0.354209,2.46519e-32,2.46519e-32,0.354209,-41.3295,-82.8928)">
            <path d="M239.149,411.299L304.785,448.218L176.933,475.141L239.149,411.299Z" style="fill:rgb(45,173,190);fill-rule:nonzero;"/>
        </g>
        <g transform="matrix(0.354209,2.46519e-32,2.46519e-32,0.354209,-41.3295,-82.8928)">
            <path d="M304.785,448.218L334.386,580.807L248.525,517.341L304.785,448.218Z" style="fill:rgb(35,137,151);fill-rule:nonzero;"/>
        </g>
        <g transform="matrix(0.354209,2.46519e-32,2.46519e-32,0.354209,-41.3295,-82.8928)">
            <path d="M248.525,517.341L282.144,585.537L301.408,556.431L248.525,517.341Z" style="fill:rgb(51,191,212);fill-rule:nonzero;"/>
        </g>
        <g transform="matrix(0.354209,2.46519e-32,2.46519e-32,0.354209,-41.3295,-82.8928)">
            <path d="M334.386,580.807L301.408,556.431L282.144,585.537L328.032,678.627L334.386,580.807Z" style="fill:rgb(68,58,50);fill-rule:nonzero;"/>
        </g>
        <g transform="matrix(0.354209,2.46519e-32,2.46519e-32,0.354209,-41.3295,-82.8928)">
            <path d="M334.386,580.807L375.891,664.269L328.032,678.627L334.386,580.807Z" style="fill:rgb(68,37,20);fill-rule:nonzero;"/>
        </g>
        <g transform="matrix(0.354209,2.46519e-32,2.46519e-32,0.354209,-41.3295,-82.8928)">
            <path d="M334.386,580.807L366.148,437.751L413.837,508.163L334.386,580.807Z" style="fill:rgb(35,137,151);fill-rule:nonzero;"/>
        </g>
        <g transform="matrix(0.354209,2.46519e-32,2.46519e-32,0.354209,-41.3295,-82.8928)">
            <path d="M413.837,508.163L334.386,580.807L334.584,581.205L393.007,593.854L413.837,508.163Z" style="fill:rgb(51,191,212);fill-rule:nonzero;"/>
        </g>
        <g transform="matrix(0.354209,2.46519e-32,2.46519e-32,0.354209,-41.3295,-82.8928)">
            <path d="M391.264,593.449L334.584,581.205L375.891,664.269L391.264,593.449Z" style="fill:rgb(153,105,73);fill-rule:nonzero;"/>
        </g>
        <g transform="matrix(0.354209,2.46519e-32,2.46519e-32,0.354209,-41.3295,-82.8928)">
            <path d="M328.032,472.149L334.386,580.807L304.785,448.218L328.032,472.149Z" style="fill:rgb(51,191,212);fill-rule:nonzero;"/>
        </g>
        <g transform="matrix(0.354209,2.46519e-32,2.46519e-32,0.354209,-41.3295,-82.8928)">
            <path d="M334.386,580.807L359.88,466.076L325.011,475.209L334.386,580.807Z" style="fill:rgb(45,173,190);fill-rule:nonzero;"/>
        </g>
        <g transform="matrix(0.354209,2.46519e-32,2.46519e-32,0.354209,-41.3295,-82.8928)">
            <path d="M366.148,437.751L441.526,437.965L461.524,482.577L366.148,437.751Z" style="fill:rgb(45,173,190);fill-rule:nonzero;"/>
        </g>
        <g transform="matrix(0.354209,2.46519e-32,2.46519e-32,0.354209,-41.3295,-82.8928)">
            <path d="M461.524,482.577L413.837,508.163L366.148,437.751L461.524,482.577Z" style="fill:rgb(51,191,212);fill-rule:nonzero;"/>
        </g>
        <g transform="matrix(0.354209,2.46519e-32,2.46519e-32,0.354209,-41.3295,-82.8928)">
            <path d="M461.524,482.577L555.397,432.147L439.557,437.751L461.524,482.577Z" style="fill:rgb(51,191,212);fill-rule:nonzero;"/>
        </g>
        <g transform="matrix(0.354209,2.46519e-32,2.46519e-32,0.354209,-41.3295,-82.8928)">
            <path d="M609.362,429.76L561.517,511.379L542.031,458.988L609.362,429.76Z" style="fill:rgb(9,65,75);fill-rule:nonzero;"/>
        </g>
        <g transform="matrix(0.354209,2.46519e-32,2.46519e-32,0.354209,-41.3295,-82.8928)">
            <path d="M554.426,432.194L461.524,482.577L542.031,458.988L609.362,429.76L554.426,432.194Z" style="fill:rgb(35,137,151);fill-rule:nonzero;"/>
        </g>
        <g transform="matrix(0.354209,2.46519e-32,2.46519e-32,0.354209,-41.3295,-82.8928)">
            <path d="M561.517,511.379L521.068,554.429L542.031,458.988L561.517,511.379Z" style="fill:rgb(30,101,110);fill-rule:nonzero;"/>
        </g>
        <g transform="matrix(0.354209,2.46519e-32,2.46519e-32,0.354209,-41.3295,-82.8928)">
            <path d="M521.068,554.429L461.524,482.577L542.031,458.988L521.068,554.429Z" style="fill:rgb(9,65,75);fill-rule:nonzero;"/>
        </g>
        <g transform="matrix(0.354209,2.46519e-32,2.46519e-32,0.354209,-41.3295,-82.8928)">
            <path d="M379.875,645.125L441.184,641.709L393.64,581.208L379.875,645.125Z" style="fill:rgb(68,37,20);fill-rule:nonzero;"/>
        </g>
        <g transform="matrix(0.354209,2.46519e-32,2.46519e-32,0.354209,-41.3295,-82.8928)">
            <path d="M441.184,641.709L474.344,571.627L393.668,581.389L441.184,641.709Z" style="fill:rgb(107,57,23);fill-rule:nonzero;"/>
        </g>
        <g transform="matrix(0.354209,2.46519e-32,2.46519e-32,0.354209,-41.3295,-82.8928)">
            <path d="M521.068,554.429L474.344,571.627L413.837,508.163L521.068,554.429Z" style="fill:rgb(9,55,61);fill-rule:nonzero;"/>
        </g>
        <g transform="matrix(0.354209,2.46519e-32,2.46519e-32,0.354209,-41.3295,-82.8928)">
            <path d="M461.524,482.577L413.837,508.163L521.068,554.429L461.524,482.577Z" style="fill:rgb(30,101,110);fill-rule:nonzero;"/>
        </g>
        <g transform="matrix(0.354209,2.46519e-32,2.46519e-32,0.354209,-41.3295,-82.8928)">
            <path d="M393.668,581.389L474.344,571.627L413.837,508.163L393.668,581.389Z" style="fill:rgb(9,65,75);fill-rule:nonzero;"/>
        </g>
        <g transform="matrix(0.354209,2.46519e-32,2.46519e-32,0.354209,-41.3295,-82.8928)">
            <path d="M366.148,437.751L350.37,509.049L304.785,448.218L366.148,437.751Z" style="fill:rgb(107,201,223);fill-rule:nonzero;"/>
        </g>
        <g transform="matrix(0.354209,2.46519e-32,2.46519e-32,0.354209,-41.3295,-82.8928)">
            <path d="M616.445,368.871L522.7,334.563L424.774,336.164L309.572,347.881L309.513,347.939L243.594,347.716L191.824,363.286L191.633,363.1L144.913,405.828L219.076,431.207L305.089,448.602L388.526,469.543L453.15,460.164L514.005,451.7L609.362,429.76L653.087,389.081L616.445,368.871Z" style="fill:rgb(67,194,215);fill-rule:nonzero;"/>
        </g>
        <g transform="matrix(0.354209,2.46519e-32,2.46519e-32,0.354209,-41.3295,-82.8928)">
            <path d="M219.199,431.769L243.594,347.716L162.699,371.288L144.913,405.828L219.199,431.769Z" style="fill:rgb(67,194,215);fill-rule:nonzero;"/>
        </g>
        <g transform="matrix(0.354209,2.46519e-32,2.46519e-32,0.354209,-41.3295,-82.8928)">
            <path d="M545.083,444.115L528.884,413.432L525.117,405.596L613.902,368.91L653.087,389.081L609.362,429.76L545.083,444.115Z" style="fill:rgb(63,182,214);fill-rule:nonzero;"/>
        </g>
        <g transform="matrix(0.354209,2.46519e-32,2.46519e-32,0.354209,-41.3295,-82.8928)">
            <path d="M653.087,389.081L631.597,482.577L609.362,429.76L653.087,389.081Z" style="fill:rgb(35,137,151);fill-rule:nonzero;"/>
        </g>
        <g transform="matrix(0.354209,2.46519e-32,2.46519e-32,0.354209,-41.3295,-82.8928)">
            <path d="M631.597,482.577L559.809,511.379L609.362,429.76L631.597,482.577Z" style="fill:rgb(30,101,110);fill-rule:nonzero;"/>
        </g>
        <g transform="matrix(0.354209,2.46519e-32,2.46519e-32,0.354209,-41.3295,-82.8928)">
            <path d="M219.199,431.769L144.913,405.828L219.199,431.769L219.346,431.262L219.638,431.321L219.201,431.768L219.199,431.769Z" style="fill:rgb(123,206,226);fill-rule:nonzero;"/>
        </g>
        <g transform="matrix(0.354209,2.46519e-32,2.46519e-32,0.354209,-41.3295,-82.8928)">
            <path d="M219.201,431.768L219.638,431.321L219.927,431.379L219.201,431.768Z" style="fill:rgb(70,181,197);fill-rule:nonzero;"/>
        </g>
        <g transform="matrix(0.354209,2.46519e-32,2.46519e-32,0.354209,-41.3295,-82.8928)">
            <path d="M219.927,431.379L219.638,431.321L219.346,431.262L232.645,385.44L285.634,396.161L219.927,431.379Z" style="fill:rgb(89,199,218);fill-rule:nonzero;"/>
        </g>
        <g transform="matrix(0.354209,2.46519e-32,2.46519e-32,0.354209,-41.3295,-82.8928)">
            <path d="M219.199,431.769L144.913,405.828L162.699,371.288L232.645,385.44L219.346,431.262L219.199,431.769Z" style="fill:rgb(89,199,218);fill-rule:nonzero;"/>
        </g>
        <g transform="matrix(0.354209,2.46519e-32,2.46519e-32,0.354209,-41.3295,-82.8928)">
            <path d="M387.511,469.293L360.634,462.67L360.66,462.549L387.507,469.287L387.511,469.293Z" style="fill:rgb(33,133,151);fill-rule:nonzero;"/>
        </g>
        <g transform="matrix(0.354209,2.46519e-32,2.46519e-32,0.354209,-41.3295,-82.8928)">
            <path d="M388.526,469.543L387.511,469.293L387.507,469.287L388.526,469.543Z" style="fill:rgb(51,185,211);fill-rule:nonzero;"/>
        </g>
        <g transform="matrix(0.354209,2.46519e-32,2.46519e-32,0.354209,-41.3295,-82.8928)">
            <path d="M304.31,448.802L303.132,448.566L304.002,448.383L304.559,448.495L304.31,448.802Z" style="fill:rgb(30,98,110);fill-rule:nonzero;"/>
        </g>
        <g transform="matrix(0.354209,2.46519e-32,2.46519e-32,0.354209,-41.3295,-82.8928)">
            <path d="M303.132,448.566L219.199,431.769L219.201,431.768L219.941,431.382L304.002,448.383L303.132,448.566Z" style="fill:rgb(41,168,190);fill-rule:nonzero;"/>
        </g>
        <g transform="matrix(0.354209,2.46519e-32,2.46519e-32,0.354209,-41.3295,-82.8928)">
            <path d="M304.948,448.949L304.525,448.845L304.31,448.802L304.559,448.495L304.861,448.556L304.948,448.949Z" style="fill:rgb(33,133,151);fill-rule:nonzero;"/>
        </g>
        <g transform="matrix(0.354209,2.46519e-32,2.46519e-32,0.354209,-41.3295,-82.8928)">
            <path d="M305.42,449.065L304.948,448.949L304.861,448.556L305.071,448.599L305.42,449.065Z" style="fill:rgb(51,185,211);fill-rule:nonzero;"/>
        </g>
        <g transform="matrix(0.354209,2.46519e-32,2.46519e-32,0.354209,-41.3295,-82.8928)">
            <path d="M360.634,462.67L305.42,449.065L305.071,448.599L305.089,448.602L360.66,462.549L360.634,462.67Z" style="fill:rgb(103,194,223);fill-rule:nonzero;"/>
        </g>
        <g transform="matrix(0.354209,2.46519e-32,2.46519e-32,0.354209,-41.3295,-82.8928)">
            <path d="M388.526,469.543L387.507,469.287L360.66,462.549L305.089,448.602L305.071,448.599L304.861,448.556L304.559,448.495L304.002,448.383L219.941,431.382L286.888,396.415L285.634,396.161L285.761,396.094L385.948,422.187L388.526,469.543Z" style="fill:rgb(64,188,215);fill-rule:nonzero;"/>
        </g>
        <g transform="matrix(0.354209,2.46519e-32,2.46519e-32,0.354209,-41.3295,-82.8928)">
            <path d="M219.199,431.769L219.201,431.768L219.199,431.769Z" style="fill:rgb(119,200,226);fill-rule:nonzero;"/>
        </g>
        <g transform="matrix(0.354209,2.46519e-32,2.46519e-32,0.354209,-41.3295,-82.8928)">
            <path d="M219.201,431.768L219.927,431.379L219.941,431.382L219.199,431.769" style="fill:rgb(68,175,197);fill-rule:nonzero;"/>
        </g>
        <g transform="matrix(0.354209,2.46519e-32,2.46519e-32,0.354209,-41.3295,-82.8928)">
            <path d="M219.941,431.382L219.927,431.379L285.634,396.161L286.888,396.415L219.941,431.382Z" style="fill:rgb(84,194,219);fill-rule:nonzero;"/>
        </g>
        <g transform="matrix(0.354209,2.46519e-32,2.46519e-32,0.354209,-41.3295,-82.8928)">
            <path d="M423.23,464.579L423.112,464.523L450.714,460.518L450.773,460.639L423.23,464.579Z" style="fill:rgb(91,190,204);fill-rule:nonzero;"/>
        </g>
        <g transform="matrix(0.354209,2.46519e-32,2.46519e-32,0.354209,-41.3295,-82.8928)">
            <path d="M388.526,469.543L423.112,464.523L423.23,464.579L388.526,469.543Z" style="fill:rgb(98,201,218);fill-rule:nonzero;"/>
        </g>
        <g transform="matrix(0.354209,2.46519e-32,2.46519e-32,0.354209,-41.3295,-82.8928)">
            <path d="M450.773,460.639L450.714,460.518L453.15,460.164L487.237,455.423L450.773,460.639ZM515.224,451.42L521.74,449.92L520.952,450.348L518.029,451.019L515.224,451.42Z" style="fill:rgb(98,201,218);fill-rule:nonzero;"/>
        </g>
        <g transform="matrix(0.354209,2.46519e-32,2.46519e-32,0.354209,-41.3295,-82.8928)">
            <path d="M520.952,450.348L521.74,449.92L545.288,444.502L545.412,444.737L520.952,450.348Z" style="fill:rgb(80,161,171);fill-rule:nonzero;"/>
        </g>
        <g transform="matrix(0.354209,2.46519e-32,2.46519e-32,0.354209,-41.3295,-82.8928)">
            <path d="M388.526,469.543L385.948,422.187L524.875,405.838L528.884,413.432L543.775,444.407L545.083,444.115L545.288,444.502L521.74,449.92L515.224,451.42L487.237,455.423L453.15,460.164L450.714,460.518L423.112,464.523L388.526,469.543Z" style="fill:rgb(108,204,220);fill-rule:nonzero;"/>
        </g>
        <g transform="matrix(0.354209,2.46519e-32,2.46519e-32,0.354209,-41.3295,-82.8928)">
            <path d="M543.775,444.407L528.884,413.432L545.083,444.115L543.775,444.407Z" style="fill:rgb(102,198,223);fill-rule:nonzero;"/>
        </g>
        <g transform="matrix(0.354209,2.46519e-32,2.46519e-32,0.354209,-41.3295,-82.8928)">
            <path d="M381.357,416.711L381.357,404.389L416.404,409.238L381.357,416.711Z" style="fill:rgb(87,199,218);fill-rule:nonzero;"/>
        </g>
        <g transform="matrix(0.354209,2.46519e-32,2.46519e-32,0.354209,-60.8312,-87.6534)">
            <path d="M503.13,385.784L503.13,379.744L520.31,382.121L503.13,385.784Z" style="fill:rgb(87,199,218);fill-rule:nonzero;"/>
        </g>
        <g transform="matrix(0.354209,2.46519e-32,2.46519e-32,0.354209,-32.1371,-80.0025)">
            <path d="M249.196,371.046L249.196,365.005L266.376,367.383L249.196,371.046Z" style="fill:rgb(87,199,218);fill-rule:nonzero;"/>
        </g>
        <g transform="matrix(0.354209,2.46519e-32,2.46519e-32,0.354209,-60.8312,-87.6534)">
            <path d="M516.539,382.724C516.539,382.724 522.276,378.15 522.479,371.96C522.684,365.768 529.185,381.867 529.185,381.867L516.539,382.724Z" style="fill:rgb(55,61,85);fill-rule:nonzero;"/>
        </g>
        <g transform="matrix(0.354209,2.46519e-32,2.46519e-32,0.354209,-32.1371,-80.0025)">
            <path d="M261.72,367.582C261.72,367.582 267.458,363.01 267.661,356.818C267.863,350.627 274.366,366.726 274.366,366.726L261.72,367.582Z" style="fill:rgb(55,61,85);fill-rule:nonzero;"/>
        </g>
        <g transform="matrix(0.354209,2.46519e-32,2.46519e-32,0.354209,-41.3295,-82.8928)">
            <path d="M400.872,410.291C400.872,410.291 407.919,404.674 408.169,397.069C408.42,389.465 416.404,409.238 416.404,409.238L400.872,410.291Z" style="fill:rgb(55,61,85);fill-rule:nonzero;"/>
        </g>
    </g>
</svg>
