<?xml version="1.0" standalone="no"?>
<!DOCTYPE svg PUBLIC "-//W3C//DTD SVG 1.1//EN" "http://www.w3.org/Graphics/SVG/1.1/DTD/svg11.dtd">
<svg width="100%" height="100%" viewBox="0 0 120 120" version="1.1" xmlns="http://www.w3.org/2000/svg" xmlns:xlink="http://www.w3.org/1999/xlink" xml:space="preserve" style="fill-rule:evenodd;clip-rule:evenodd;stroke-linejoin:round;stroke-miterlimit:1.41421;">
    <g transform="matrix(0.516779,2.54223e-32,1.27111e-32,0.516779,-142.368,-9.78814)">
        <g id="Layer1">
            <path d="M439.714,139.841L420.569,139.841L420.569,120.589L439.714,120.589L439.714,139.841ZM355.643,139.841L336.498,139.841L336.498,120.589L355.643,120.589L355.643,139.841ZM480.068,131.526L480.068,112.175L459.923,112.175L459.923,98.687L441.842,98.687L441.842,79.337L461.935,79.337L461.935,58.227L442.258,58.227L442.258,79.337L422.165,79.337L422.165,98.687L359.1,98.687L359.1,79.337L339.006,79.337L339.006,58.227L319.329,58.227L319.329,79.337L339.422,79.337L339.422,98.687L321.075,98.687L321.075,112.175L302.589,112.175L302.589,131.526L285.167,131.526L285.167,200.72L307.375,200.72L307.375,160.845L321.075,160.845L321.075,196.616L331.711,196.616L331.711,211.862L367.343,211.862L367.343,190.166L342.879,190.166L342.879,172.573L438.119,172.573L438.119,190.166L414.72,190.166L414.72,211.862L450.351,211.862L450.351,196.616L459.923,196.616L459.923,160.845L475.813,160.845L475.813,200.72L498.024,200.72L498.024,131.526L480.068,131.526Z" style="fill:rgb(255,225,128);fill-rule:nonzero;"/>
        </g>
    </g>
</svg>
