<?xml version="1.0" standalone="no"?>
<!DOCTYPE svg PUBLIC "-//W3C//DTD SVG 1.1//EN" "http://www.w3.org/Graphics/SVG/1.1/DTD/svg11.dtd">
<svg width="100%" height="100%" viewBox="0 0 120 120" version="1.1" xmlns="http://www.w3.org/2000/svg" xmlns:xlink="http://www.w3.org/1999/xlink" xml:space="preserve" style="fill-rule:evenodd;clip-rule:evenodd;stroke-linejoin:round;stroke-miterlimit:1.41421;">
    <g transform="matrix(0.117378,-0.440034,0.447035,0.119245,-2.6633,95.8279)">
        <g id="Layer1">
            <path d="M213.818,75.319C212.416,73.893 210.502,73.086 208.502,73.077C208.491,73.077 208.481,73.077 208.47,73.077C206.481,73.077 204.574,73.867 203.167,75.273L164.353,114.088L149.366,111.21C146.923,110.74 144.407,111.514 142.648,113.272L125.635,130.284L118.478,123.127C120.666,120.369 121.862,116.984 121.862,113.411C121.862,109.221 120.23,105.282 117.268,102.319C114.306,99.357 110.367,97.725 106.177,97.725C102.604,97.725 99.218,98.922 96.46,101.109L89.303,93.952L106.315,76.94C108.074,75.181 108.846,72.665 108.377,70.221L105.499,55.235L144.313,16.421C147.242,13.491 147.187,8.688 144.257,5.758C140.543,2.045 135.606,0 130.353,0C128.003,0 125.694,0.416 123.49,1.238L50.662,28.383C49.654,28.758 48.739,29.347 47.978,30.107L14.928,63.156C13.948,64.136 13.259,65.369 12.936,66.718L0.208,120.015C-0.397,122.55 0.356,125.217 2.2,127.06L12.633,137.494C14.039,138.901 15.947,139.691 17.936,139.691C19.925,139.691 21.833,138.901 23.239,137.495L42.173,118.561L61.306,137.694C58.856,143.417 59.952,150.308 64.616,154.972C67.578,157.934 71.517,159.566 75.707,159.566C77.874,159.566 79.97,159.121 81.902,158.29L101.027,177.415L82.093,196.348C79.164,199.278 79.164,204.026 82.093,206.955L92.526,217.388C93.949,218.811 95.863,219.584 97.829,219.584C98.409,219.584 98.994,219.517 99.571,219.379L152.869,206.65C154.217,206.328 155.45,205.638 156.43,204.659L189.48,171.609C190.241,170.848 190.829,169.932 191.205,168.924L218.349,96.097C221.028,88.907 219.254,80.756 213.818,75.319ZM109.342,146.577C107.923,147.997 107.131,149.927 107.145,151.934L107.22,162.392L93.299,148.471L107.954,133.816L115.029,140.891L109.342,146.577ZM85.77,111.634L71.115,126.289L57.194,112.368L67.653,112.442C69.695,112.449 71.591,111.665 73.009,110.246L78.695,104.56L85.77,111.634Z" style="fill:rgb(125,138,181);fill-rule:nonzero;"/>
        </g>
    </g>
</svg>
